<svg width="280" height="110" viewBox="0 0 280 110" fill="none" xmlns="http://www.w3.org/2000/svg">
<g clip-path="url(#clip0_7_33)">
<path d="M56.6685 0L22.2383 14.2499L54.5664 92.3258C55.1691 93.7243 55.2476 95.2927 54.7877 96.7443L50.849 110L56.7349 97.628L91.2979 14.3162L56.6685 0Z" fill="url(#paint0_linear_7_33)"/>
<path d="M0 56.646L16.6398 96.6781L48.9458 110L13.4092 24.28L0 56.646Z" fill="url(#paint1_linear_7_33)"/>
<path d="M100.038 24.4346L64.5674 109.978L96.8291 96.6117L113.403 56.5796L100.038 24.4346Z" fill="url(#paint2_linear_7_33)"/>
<path d="M143.718 17.2103H143.85C144.544 17.2085 145.227 17.3753 145.842 17.6964C146.419 18.0253 146.894 18.507 147.214 19.0882C147.558 19.6939 147.733 20.3803 147.723 21.0765C147.727 21.772 147.552 22.4568 147.214 23.0649C146.898 23.6379 146.421 24.1064 145.842 24.4126C145.24 24.7464 144.561 24.9142 143.873 24.8986H143.718V26.0474H142.124V24.8102H141.992C141.304 24.8258 140.624 24.6581 140.022 24.3242C139.437 24.0193 138.952 23.5511 138.628 22.9765C138.297 22.3748 138.129 21.6969 138.142 21.0103C138.126 20.3093 138.294 19.6165 138.628 18.9998C138.952 18.4194 139.436 17.9439 140.022 17.6301C140.631 17.3202 141.31 17.1754 141.992 17.2103H142.147V15.929H143.74L143.718 17.2103ZM141.97 18.5359C141.657 18.5248 141.345 18.58 141.055 18.6981C140.765 18.8162 140.504 18.9943 140.288 19.2208C139.894 19.7555 139.682 20.4018 139.682 21.0655C139.682 21.7291 139.894 22.3754 140.288 22.9102C140.509 23.1424 140.777 23.324 141.075 23.4422C141.373 23.5605 141.694 23.6127 142.014 23.5952H142.147V18.5359H141.97ZM143.718 18.5359V23.5952H143.873C144.185 23.6063 144.497 23.5509 144.787 23.4329C145.077 23.3148 145.338 23.1367 145.554 22.9102C145.955 22.3783 146.171 21.7309 146.171 21.0655C146.171 20.4001 145.955 19.7527 145.554 19.2208C145.336 18.9915 145.071 18.8116 144.777 18.6935C144.483 18.5753 144.167 18.5216 143.85 18.5359H143.718Z" fill="url(#paint3_linear_7_33)"/>
<path d="M162.349 21.4521H158.476V24.3462H163.012V25.6497H156.839V16.2382H162.968V17.5416H158.543V20.1486H162.415L162.349 21.4521Z" fill="url(#paint4_linear_7_33)"/>
<path d="M180.714 27.9694H179.165V25.6497H172.969V27.9694H171.398V24.3462H172.173C172.599 23.8998 172.903 23.3523 173.058 22.7556C173.298 21.9953 173.447 21.2091 173.5 20.4137L173.744 16.2382H179.608V24.3462H180.803L180.714 27.9694ZM173.921 24.3462H177.97V17.5416H175.182L175.027 20.2148C175.003 21.6616 174.623 23.0803 173.921 24.3462Z" fill="url(#paint5_linear_7_33)"/>
<path d="M195.252 21.4521H191.38V24.3462H195.916V25.6497H189.742V16.2382H195.872V17.5416H191.446V20.1486H195.318L195.252 21.4521Z" fill="url(#paint6_linear_7_33)"/>
<path d="M206.582 22.159V25.6497H204.944V16.2382H208.551C209.465 16.1853 210.365 16.477 211.074 17.0556C211.384 17.3315 211.628 17.6731 211.789 18.0553C211.949 18.4375 212.023 18.8508 212.003 19.2649C212.032 19.6779 211.965 20.0921 211.808 20.4753C211.65 20.8584 211.407 21.2002 211.096 21.4741C210.359 22.0271 209.449 22.3011 208.529 22.2474L206.582 22.159ZM206.582 20.8335H208.551C209.034 20.8673 209.513 20.7261 209.901 20.4358C210.056 20.2805 210.176 20.0935 210.253 19.8876C210.329 19.6817 210.36 19.4618 210.343 19.2428C210.356 19.019 210.321 18.7951 210.241 18.5857C210.161 18.3762 210.038 18.1861 209.879 18.0277C209.53 17.7061 209.07 17.5319 208.595 17.5416H206.582V20.8335Z" fill="url(#paint7_linear_7_33)"/>
<path d="M225.257 23.4625H221.65L220.898 25.6717H219.172L222.756 16.2603H224.217L227.802 25.6717H226.076L225.257 23.4625ZM222.071 22.1369H224.814L223.442 18.2265L222.071 22.1369Z" fill="url(#paint8_linear_7_33)"/>
<path d="M236.497 16.2382H238.135V24.3462H242.294V16.2382H243.932V24.3462H245.083L244.95 27.9253H243.445V25.716H236.497V16.2382Z" fill="url(#paint9_linear_7_33)"/>
<path d="M259.908 16.2382H261.479V25.6497H259.842V19.0219L255.704 25.6497H254.066V16.2382H255.704V22.866L259.908 16.2382Z" fill="url(#paint10_linear_7_33)"/>
<path d="M275.862 25.6498V22.137H274.048L272.211 25.6498H270.463L272.543 21.6289C272.043 21.4222 271.619 21.0682 271.326 20.6142C271.034 20.1601 270.887 19.6278 270.905 19.0882C270.869 18.6764 270.93 18.2617 271.083 17.8779C271.237 17.494 271.479 17.1518 271.791 16.8789C272.503 16.347 273.38 16.0812 274.269 16.1278H277.477V25.5393L275.862 25.6498ZM272.543 19.1766C272.526 19.4023 272.556 19.629 272.632 19.8422C272.709 20.0553 272.829 20.2501 272.985 20.4138C273.164 20.5748 273.375 20.6971 273.603 20.7732C273.832 20.8492 274.073 20.8772 274.313 20.8556H275.84V17.5417H274.313C274.073 17.5239 273.833 17.5538 273.605 17.6297C273.377 17.7055 273.166 17.8258 272.985 17.9836C272.83 18.1389 272.71 18.3259 272.634 18.5318C272.557 18.7377 272.526 18.9577 272.543 19.1766Z" fill="url(#paint11_linear_7_33)"/>
<path d="M153.343 42.9484H147.391V59.0541H142.611V42.9484H136.77V39.3031H153.343V42.9484Z" fill="url(#paint12_linear_7_33)"/>
<path d="M165.535 55.3645H158.897L157.746 59.054H152.635L159.915 39.1705H164.34L171.664 59.054H166.531L165.535 55.3645ZM160.136 51.6751H164.384L162.172 44.8263L160.136 51.6751Z" fill="url(#paint13_linear_7_33)"/>
<path d="M173.833 59.054V39.1705H180.936C182.974 39.0415 185.004 39.5346 186.755 40.5844C187.726 41.3551 188.388 42.4465 188.623 43.6617C188.859 44.877 188.651 46.1361 188.039 47.2123C187.541 47.958 186.81 48.5175 185.959 48.803C186.911 49.0124 187.758 49.5526 188.349 50.3274C188.913 51.1187 189.201 52.0738 189.167 53.0448C189.237 53.8742 189.106 54.7081 188.786 55.4768C188.467 56.2455 187.968 56.9267 187.331 57.4634C185.727 58.5549 183.802 59.0763 181.865 58.9436L173.833 59.054ZM178.59 47.5216H181.091C181.872 47.5849 182.652 47.3824 183.304 46.9472C183.532 46.7386 183.71 46.4813 183.825 46.1944C183.94 45.9075 183.989 45.5985 183.967 45.2902C183.989 44.9562 183.935 44.6215 183.809 44.3115C183.682 44.0015 183.487 43.7243 183.237 43.5007C182.575 43.091 181.802 42.8979 181.024 42.9484H178.679L178.59 47.5216ZM178.59 50.6367V55.3866H181.821C182.535 55.4343 183.242 55.2225 183.812 54.7902C184.046 54.5847 184.229 54.3285 184.348 54.0412C184.467 53.754 184.519 53.4434 184.498 53.1332C184.545 52.7983 184.514 52.4573 184.407 52.1364C184.301 51.8154 184.122 51.5231 183.885 51.282C183.648 51.0408 183.358 50.8573 183.039 50.7454C182.719 50.6335 182.378 50.5963 182.042 50.6367H178.59Z" fill="url(#paint14_linear_7_33)"/>
<path d="M197.133 52.3378V58.9656H192.354V39.0821H200.275C201.663 39.0603 203.039 39.347 204.302 39.9216C205.405 40.4531 206.34 41.2789 207.002 42.3076C207.645 43.3572 207.975 44.5681 207.953 45.7983C207.989 46.6773 207.822 47.5528 207.465 48.3572C207.108 49.1616 206.571 49.8735 205.895 50.4378C204.255 51.6662 202.233 52.2765 200.187 52.1611L197.133 52.3378ZM197.133 48.6704H200.275C200.673 48.7073 201.073 48.6637 201.454 48.5423C201.834 48.4208 202.186 48.2239 202.488 47.9634C202.731 47.704 202.92 47.3979 203.041 47.0638C203.163 46.7296 203.216 46.3743 203.196 46.0193C203.232 45.2184 202.972 44.4321 202.466 43.81C202.2 43.5344 201.88 43.3174 201.526 43.1728C201.171 43.0282 200.791 42.9593 200.408 42.9704H197.221L197.133 48.6704Z" fill="url(#paint15_linear_7_33)"/>
<path d="M223.354 50.6588H215.852V55.3866H224.703V59.054H211.051V39.1705H224.726V42.86H215.875V47.0356H223.376L223.354 50.6588Z" fill="url(#paint16_linear_7_33)"/>
<path d="M243.91 39.3031V59.1866H239.131V43.0809H234.705L234.373 49.7088C234.311 51.5774 233.991 53.4286 233.422 55.2099C233.026 56.4167 232.25 57.463 231.209 58.1924C230.085 58.8955 228.772 59.2349 227.447 59.1645H226.164V55.4971H226.85C227.322 55.4282 227.766 55.2281 228.13 54.9194C228.494 54.6108 228.763 54.2062 228.908 53.7518C229.446 52.0728 229.729 50.3228 229.749 48.56L230.081 39.4357L243.91 39.3031Z" fill="url(#paint17_linear_7_33)"/>
<path d="M259.731 50.6588H252.208V55.3866H261.059V59.054H247.406V39.1705H261.081V42.86H252.23V47.0356H259.753L259.731 50.6588Z" fill="url(#paint18_linear_7_33)"/>
<path d="M275.221 39.3031H280V59.1866H275.221V46.5937L268.118 59.0541H263.36V39.1706H268.118V51.6751L275.221 39.3031ZM276.725 33.9788C276.748 34.555 276.636 35.1285 276.397 35.6539C276.159 36.1793 275.802 36.642 275.353 37.0055C274.317 37.8189 273.019 38.2274 271.702 38.1543C270.38 38.2228 269.076 37.8151 268.029 37.0055C267.585 36.6387 267.23 36.1753 266.992 35.6508C266.754 35.1262 266.64 34.5543 266.657 33.9788H269.777C269.765 34.2163 269.804 34.4537 269.892 34.6748C269.98 34.8959 270.114 35.0956 270.286 35.2602C270.684 35.5861 271.189 35.7516 271.702 35.7241C272.21 35.7548 272.709 35.5886 273.096 35.2602C273.268 35.0963 273.401 34.8962 273.485 34.6745C273.569 34.4528 273.603 34.2151 273.583 33.9788H276.725Z" fill="url(#paint19_linear_7_33)"/>
<path d="M144.204 88.7026V97.0537H138.252V72.4423H148.099C149.829 72.4112 151.545 72.7659 153.122 73.4807C154.509 74.1263 155.683 75.1532 156.507 76.4411C157.321 77.7693 157.736 79.303 157.702 80.8597C157.745 81.955 157.533 83.0453 157.084 84.0455C156.635 85.0458 155.96 85.9289 155.113 86.6259C153.083 88.1809 150.565 88.964 148.01 88.8352L144.204 88.7026ZM144.204 84.1073H148.099C149.062 84.1755 150.015 83.8665 150.754 83.2457C151.067 82.922 151.309 82.5369 151.466 82.1147C151.622 81.6926 151.688 81.2426 151.661 80.7934C151.711 79.785 151.37 78.7963 150.71 78.0318C150.391 77.6855 149.999 77.413 149.564 77.2336C149.128 77.0543 148.658 76.9723 148.187 76.9934H144.204V84.1073Z" fill="url(#paint20_linear_7_33)"/>
<path d="M182.374 85.234C182.409 87.4365 181.948 89.6187 181.024 91.6188C180.208 93.3923 178.884 94.884 177.218 95.9048C175.508 96.8751 173.575 97.3853 171.609 97.3853C169.642 97.3853 167.709 96.8751 165.999 95.9048C164.356 94.9262 163.033 93.4906 162.193 91.7735C161.254 89.8458 160.762 87.7313 160.755 85.5875V84.1957C160.709 81.9946 161.163 79.8117 162.083 77.8108C162.906 76.0358 164.239 74.5444 165.911 73.5248C167.616 72.5119 169.569 71.9918 171.553 72.0225C173.521 71.984 175.461 72.4968 177.152 73.5028C178.811 74.5176 180.141 75.9909 180.98 77.7446C181.917 79.7184 182.393 81.8788 182.374 84.0631V85.234ZM176.311 84.1957C176.429 82.2606 175.999 80.3314 175.072 78.6283C174.71 78.0251 174.193 77.5304 173.574 77.196C172.955 76.8617 172.257 76.7001 171.553 76.7283C168.566 76.7283 166.995 78.9376 166.818 83.3561V85.1678C166.703 87.0974 167.116 89.022 168.013 90.7351C168.373 91.3591 168.897 91.8725 169.53 92.2192C170.162 92.5659 170.877 92.7328 171.598 92.7014C172.296 92.7217 172.987 92.5539 173.598 92.2158C174.21 91.8776 174.718 91.3814 175.072 90.7793C175.982 89.0936 176.41 87.1906 176.311 85.2782V84.1957Z" fill="url(#paint21_linear_7_33)"/>
<path d="M206.161 88.7025C206.108 90.316 205.626 91.8865 204.767 93.2537C203.898 94.5967 202.662 95.6625 201.204 96.3246C199.548 97.0625 197.751 97.4319 195.938 97.4071C194.505 97.4769 193.075 97.2277 191.751 96.6774C190.427 96.1272 189.242 95.2897 188.282 94.2257C186.26 91.6976 185.258 88.5063 185.472 85.2782V84.0631C185.424 81.883 185.855 79.7189 186.733 77.7225C187.506 75.9925 188.777 74.5312 190.384 73.5248C192.032 72.5142 193.938 72.0002 195.872 72.0446C198.492 71.9212 201.067 72.7624 203.107 74.4085C204.03 75.2358 204.78 76.2379 205.311 77.3567C205.843 78.4756 206.147 79.6888 206.205 80.9259H200.275C200.311 80.3352 200.227 79.7434 200.03 79.1855C199.832 78.6276 199.524 78.1151 199.124 77.6782C198.199 76.962 197.039 76.6155 195.872 76.7062C195.23 76.6612 194.588 76.7917 194.015 77.0836C193.442 77.3756 192.959 77.8179 192.619 78.3631C191.814 80.0104 191.441 81.8348 191.535 83.6654V85.4107C191.396 87.3419 191.738 89.2773 192.53 91.0444C192.885 91.6155 193.391 92.0769 193.993 92.3773C194.594 92.6777 195.268 92.8052 195.938 92.7455C197.07 92.819 198.188 92.4729 199.08 91.7735C199.475 91.3694 199.781 90.8877 199.979 90.3589C200.177 89.8302 200.263 89.2661 200.231 88.7025H206.161Z" fill="url(#paint22_linear_7_33)"/>
<path d="M229.616 88.7025C229.563 90.316 229.082 91.8865 228.222 93.2537C227.345 94.5974 226.101 95.6629 224.637 96.3246C222.99 97.0648 221.2 97.4343 219.393 97.4071C217.957 97.4771 216.524 97.2281 215.196 96.6779C213.868 96.1278 212.679 95.2902 211.715 94.2257C209.711 91.6894 208.717 88.5021 208.927 85.2782V84.0631C208.879 81.883 209.31 79.7189 210.188 77.7225C210.961 75.9925 212.232 74.5312 213.839 73.5248C215.487 72.5142 217.393 72.0002 219.327 72.0446C221.947 71.9253 224.52 72.766 226.562 74.4086C227.486 75.2358 228.235 76.2379 228.767 77.3567C229.298 78.4756 229.602 79.6888 229.66 80.9259H223.708C223.747 80.3367 223.667 79.7458 223.473 79.188C223.279 78.6302 222.975 78.1168 222.58 77.6782C221.654 76.962 220.494 76.6155 219.327 76.7062C218.685 76.6612 218.043 76.7917 217.47 77.0836C216.897 77.3756 216.414 77.8179 216.074 78.3631C215.258 80.0068 214.885 81.834 214.99 83.6654V85.4107C214.857 87.3394 215.191 89.2716 215.963 91.0444C216.323 91.6155 216.834 92.0764 217.439 92.3765C218.044 92.6767 218.72 92.8044 219.393 92.7455C220.525 92.819 221.644 92.4729 222.535 91.7734C222.927 91.3671 223.231 90.885 223.429 90.3568C223.627 89.8287 223.714 89.2657 223.686 88.7025H229.616Z" fill="url(#paint23_linear_7_33)"/>
<path d="M247.606 72.4423H253.558V97.0978H247.606V81.6329L238.755 97.0978H232.714V72.4423H238.666V87.9072L247.606 72.4423Z" fill="url(#paint24_linear_7_33)"/>
<path d="M272.366 72.4423H278.318V97.0978H272.366V81.6329L263.515 97.0978H257.562V72.4423H263.515V87.9072L272.366 72.4423Z" fill="url(#paint25_linear_7_33)"/>
</g>
<defs>
<linearGradient id="paint0_linear_7_33" x1="26.3318" y1="97.7827" x2="64.7272" y2="-7.92573" gradientUnits="userSpaceOnUse">
<stop stop-color="#570000"/>
<stop offset="1" stop-color="#7F2725"/>
</linearGradient>
<linearGradient id="paint1_linear_7_33" x1="442.959" y1="3729.96" x2="2546.98" y2="426.838" gradientUnits="userSpaceOnUse">
<stop stop-color="#570000"/>
<stop offset="1" stop-color="#7F2725"/>
</linearGradient>
<linearGradient id="paint2_linear_7_33" x1="1764.03" y1="4523.16" x2="3863.09" y2="1226.57" gradientUnits="userSpaceOnUse">
<stop stop-color="#570000"/>
<stop offset="1" stop-color="#7F2725"/>
</linearGradient>
<linearGradient id="paint3_linear_7_33" x1="4045.13" y1="4764.53" x2="3492.97" y2="4384.83" gradientUnits="userSpaceOnUse">
<stop stop-color="#570000"/>
<stop offset="1" stop-color="#7F2725"/>
</linearGradient>
<linearGradient id="paint4_linear_7_33" x1="2690.29" y1="4398.73" x2="2263.23" y2="4195.32" gradientUnits="userSpaceOnUse">
<stop stop-color="#570000"/>
<stop offset="1" stop-color="#7F2725"/>
</linearGradient>
<linearGradient id="paint5_linear_7_33" x1="4051.07" y1="5443.59" x2="3454.93" y2="5096.6" gradientUnits="userSpaceOnUse">
<stop stop-color="#570000"/>
<stop offset="1" stop-color="#7F2725"/>
</linearGradient>
<linearGradient id="paint6_linear_7_33" x1="2754.85" y1="4332.19" x2="2327.79" y2="4128.78" gradientUnits="userSpaceOnUse">
<stop stop-color="#570000"/>
<stop offset="1" stop-color="#7F2725"/>
</linearGradient>
<linearGradient id="paint7_linear_7_33" x1="3156.72" y1="4305.31" x2="2694.32" y2="4053.43" gradientUnits="userSpaceOnUse">
<stop stop-color="#570000"/>
<stop offset="1" stop-color="#7F2725"/>
</linearGradient>
<linearGradient id="paint8_linear_7_33" x1="3843.71" y1="4273.83" x2="3336.27" y2="3935.97" gradientUnits="userSpaceOnUse">
<stop stop-color="#570000"/>
<stop offset="1" stop-color="#7F2725"/>
</linearGradient>
<linearGradient id="paint9_linear_7_33" x1="3867.29" y1="5256.62" x2="3300.05" y2="4954.05" gradientUnits="userSpaceOnUse">
<stop stop-color="#570000"/>
<stop offset="1" stop-color="#7F2725"/>
</linearGradient>
<linearGradient id="paint10_linear_7_33" x1="3409.28" y1="4200.61" x2="2935.24" y2="3929.58" gradientUnits="userSpaceOnUse">
<stop stop-color="#570000"/>
<stop offset="1" stop-color="#7F2725"/>
</linearGradient>
<linearGradient id="paint11_linear_7_33" x1="3273.85" y1="4218.96" x2="2810.86" y2="3971.44" gradientUnits="userSpaceOnUse">
<stop stop-color="#570000"/>
<stop offset="1" stop-color="#7F2725"/>
</linearGradient>
<linearGradient id="paint12_linear_7_33" x1="6806.57" y1="9452.22" x2="5780.81" y2="8827.23" gradientUnits="userSpaceOnUse">
<stop stop-color="#570000"/>
<stop offset="1" stop-color="#7F2725"/>
</linearGradient>
<linearGradient id="paint13_linear_7_33" x1="7842.48" y1="9469.72" x2="6753.4" y2="8712.89" gradientUnits="userSpaceOnUse">
<stop stop-color="#570000"/>
<stop offset="1" stop-color="#7F2725"/>
</linearGradient>
<linearGradient id="paint14_linear_7_33" x1="6427.31" y1="9390.68" x2="5435.49" y2="8835.19" gradientUnits="userSpaceOnUse">
<stop stop-color="#570000"/>
<stop offset="1" stop-color="#7F2725"/>
</linearGradient>
<linearGradient id="paint15_linear_7_33" x1="6593.63" y1="9302.55" x2="5593.91" y2="8732.89" gradientUnits="userSpaceOnUse">
<stop stop-color="#570000"/>
<stop offset="1" stop-color="#7F2725"/>
</linearGradient>
<linearGradient id="paint16_linear_7_33" x1="5863.52" y1="9216.4" x2="4934.61" y2="8752.53" gradientUnits="userSpaceOnUse">
<stop stop-color="#570000"/>
<stop offset="1" stop-color="#7F2725"/>
</linearGradient>
<linearGradient id="paint17_linear_7_33" x1="7608.91" y1="9143.17" x2="6548.27" y2="8455.81" gradientUnits="userSpaceOnUse">
<stop stop-color="#570000"/>
<stop offset="1" stop-color="#7F2725"/>
</linearGradient>
<linearGradient id="paint18_linear_7_33" x1="5977.38" y1="9060.91" x2="5048.47" y2="8597.04" gradientUnits="userSpaceOnUse">
<stop stop-color="#570000"/>
<stop offset="1" stop-color="#7F2725"/>
</linearGradient>
<linearGradient id="paint19_linear_7_33" x1="7286.15" y1="11366.4" x2="6137.78" y2="10816" gradientUnits="userSpaceOnUse">
<stop stop-color="#570000"/>
<stop offset="1" stop-color="#7F2725"/>
</linearGradient>
<linearGradient id="paint20_linear_7_33" x1="7809.89" y1="12077.8" x2="6567.88" y2="11365" gradientUnits="userSpaceOnUse">
<stop stop-color="#570000"/>
<stop offset="1" stop-color="#7F2725"/>
</linearGradient>
<linearGradient id="paint21_linear_7_33" x1="8776.87" y1="12299.1" x2="7450.09" y2="11477.8" gradientUnits="userSpaceOnUse">
<stop stop-color="#570000"/>
<stop offset="1" stop-color="#7F2725"/>
</linearGradient>
<linearGradient id="paint22_linear_7_33" x1="8537.45" y1="12175.8" x2="7234.81" y2="11402.2" gradientUnits="userSpaceOnUse">
<stop stop-color="#570000"/>
<stop offset="1" stop-color="#7F2725"/>
</linearGradient>
<linearGradient id="paint23_linear_7_33" x1="8636.75" y1="12047.2" x2="7334.16" y2="11273.7" gradientUnits="userSpaceOnUse">
<stop stop-color="#570000"/>
<stop offset="1" stop-color="#7F2725"/>
</linearGradient>
<linearGradient id="paint24_linear_7_33" x1="8771.05" y1="11578.2" x2="7486.21" y2="10789.5" gradientUnits="userSpaceOnUse">
<stop stop-color="#570000"/>
<stop offset="1" stop-color="#7F2725"/>
</linearGradient>
<linearGradient id="paint25_linear_7_33" x1="8839.95" y1="11447" x2="7557.59" y2="10663.2" gradientUnits="userSpaceOnUse">
<stop stop-color="#570000"/>
<stop offset="1" stop-color="#7F2725"/>
</linearGradient>
<clipPath id="clip0_7_33">
<rect width="280" height="110" fill="white"/>
</clipPath>
</defs>
</svg>
