<svg width="234" height="152" viewBox="0 0 234 152" fill="none" xmlns="http://www.w3.org/2000/svg">
<path d="M47.6365 107.78C51.8692 106.3 54.1005 101.668 52.6203 97.4358C51.1401 93.2031 46.5089 90.9718 42.2762 92.452C38.0436 93.9322 35.8122 98.5633 37.2924 102.796C38.7726 107.029 43.4038 109.26 47.6365 107.78Z" fill="white"/>
<path d="M138.401 41.3216C142.634 39.8414 144.865 35.2102 143.385 30.9775C141.905 26.7449 137.274 24.5135 133.041 25.9937C128.808 27.4739 126.577 32.1051 128.057 36.3378C129.537 40.5704 134.168 42.8018 138.401 41.3216Z" fill="white"/>
<path d="M225.368 82.0639C229.601 80.5837 231.832 75.9525 230.352 71.7198C228.872 67.4872 224.24 65.2558 220.008 66.736C215.775 68.2162 213.544 72.8474 215.024 77.0801C216.504 81.3128 221.135 83.5441 225.368 82.0639Z" fill="white"/>
<path d="M82.1225 132.158L81.7044 132.304C77.8028 133.668 73.6652 131.675 72.3007 127.773L49.6415 62.978C48.2771 59.0763 50.2707 54.9387 54.1723 53.5743L54.5903 53.4281C58.492 52.0637 62.6296 54.0572 63.994 57.9588L86.6532 122.754C87.9689 126.516 85.8847 130.842 82.1225 132.158Z" fill="white"/>
<path d="M35.5814 148.434L35.1634 148.58C31.2618 149.944 27.1241 147.951 25.7597 144.049L3.10053 79.2538C1.73611 75.3522 3.72964 71.2146 7.63128 69.8501L8.04931 69.704C11.951 68.3395 16.0886 70.3331 17.453 74.2347L40.1122 139.03C41.4279 142.792 39.4831 147.069 35.5814 148.434Z" fill="white"/>
<path d="M194.574 92.8332L194.156 92.9793C190.254 94.3438 186.116 92.3502 184.752 88.4486L162.093 23.6535C160.728 19.7519 162.722 15.6142 166.623 14.2498L167.042 14.1036C170.943 12.7392 175.081 14.7327 176.445 18.6344L199.104 83.4295C200.42 87.1918 198.475 91.4687 194.574 92.8332Z" fill="white"/>
<path d="M137.812 112.527L137.394 112.673C133.492 114.037 129.355 112.044 127.99 108.142L107.28 48.9207L87.3541 55.889C87.3541 55.889 81.411 58.1238 79.2182 51.8533C77.0254 45.5828 82.4598 43.6823 82.4598 43.6823L110.329 33.9364C114.23 32.572 118.368 34.5655 119.732 38.4672L142.392 103.262C143.707 107.025 141.714 111.162 137.812 112.527Z" fill="white"/>
</svg>
