<svg width="220" height="208" viewBox="0 0 220 208" fill="none" xmlns="http://www.w3.org/2000/svg">
<path fill-rule="evenodd" clip-rule="evenodd" d="M194.427 0H74.1732L53.2422 37.1667H94.7623L71.3192 77.8751L112.909 77.846L136.336 37.1667H173.049L194.427 0Z" fill="#00A3A9"/>
<path fill-rule="evenodd" clip-rule="evenodd" d="M89.6312 24.2864H7.25333L0 37.1675H82.2214L89.6312 24.2864Z" fill="#00A3A9"/>
<path fill-rule="evenodd" clip-rule="evenodd" d="M0.288086 56.4464L60.4155 161.364L102.83 161.042L82.07 124.818L128.787 124.917L107.967 88.646L61.2837 88.5467L42.9274 56.515L0.288086 56.4464Z" fill="#049393"/>
<path fill-rule="evenodd" clip-rule="evenodd" d="M73.5615 135.736L114.751 207.607L129.451 207.496L88.3396 135.759L73.5615 135.736Z" fill="#049393"/>
<path fill-rule="evenodd" clip-rule="evenodd" d="M147.289 197.795L207.416 92.8781L185.932 56.0329L165.172 92.258L141.899 51.4503L121.129 87.7495L144.385 128.529L126.028 160.56L147.289 197.795Z" fill="#33B7BC"/>
<path fill-rule="evenodd" clip-rule="evenodd" d="M178.81 94.2207L219.998 22.3504L212.552 9.5804L171.441 81.316L178.81 94.2207Z" fill="#33B7BC"/>
</svg>
