<?xml version="1.0" encoding="UTF-8"?>
<!DOCTYPE svg PUBLIC "-//W3C//DTD SVG 1.1//EN" "http://www.w3.org/Graphics/SVG/1.1/DTD/svg11.dtd">
<!-- Creator: CorelDRAW 2021.5 -->
<svg xmlns="http://www.w3.org/2000/svg" xml:space="preserve" width="70mm" height="12.341mm" version="1.1" style="shape-rendering:geometricPrecision; text-rendering:geometricPrecision; image-rendering:optimizeQuality; fill-rule:evenodd; clip-rule:evenodd"
viewBox="0 0 6992.41 1232.76"
 xmlns:xlink="http://www.w3.org/1999/xlink"
 xmlns:xodm="http://www.corel.com/coreldraw/odm/2003">
 <defs>
  <style type="text/css">
   <![CDATA[
    .fil0 {fill:#FEFEFE;fill-rule:nonzero}
    .fil1 {fill:#F71348;fill-rule:nonzero}
   ]]>
  </style>
 </defs>
 <g id="Слой_x0020_1">
  <metadata id="CorelCorpID_0Corel-Layer"/>
  <g id="_2635171844368">
   <path class="fil0" d="M5577.96 1231.72l-373.11 0 -330.07 -394.65 -330.06 394.65 -373.11 0 516.63 -623.06 -502.28 -606.33 373.12 0 315.71 382.69 315.73 -382.69 373.11 0 -502.27 606.33 516.62 623.06zm-2997.24 -942.38l-1297.66 0 -840.81 657.76 671.48 -2.39 0 287.01 -1113.74 0 0 -287.01 1180.86 -944.71 1399.87 2.34 0 287.01zm-9.47 184.17l0 287.02 -996.64 0 0 184.18 1003.71 0 0 287.01 -1290.73 0 0 -762.81c433.37,0 845.99,4.61 1283.66,4.61zm1484.73 -184.17l-1293.13 0 0 -287.01 1293.13 0 0 287.01zm-9.47 184.17l0 287.02 -996.64 0 0 184.18 1003.71 0 0 287.01 -1290.73 0 0 -45.73 0 -717.08c433.37,0 845.98,4.61 1283.66,4.61zm2574.25 758.2l-649.9 -787.13 0.73 318.52 91.15 0 234.62 287.02 -325.12 0 0.42 181.58 -286.42 0 0 -1229.39 287.01 0 1019.16 1230.43 -371.65 -1.05z"/>
   <polygon class="fil1" points="547.11,289.35 -0,289.35 -0,2.34 904.66,2.34 "/>
  </g>
 </g>
</svg>
